<svg width="81" height="71" viewBox="0 0 81 71" fill="none" xmlns="http://www.w3.org/2000/svg">
<path d="M2.35268 34.5C1.71395 39.3764 2.08654 59.8652 2.35268 69.5H79V34.5" stroke="#160045" stroke-width="3" stroke-linecap="round"/>
<path d="M42.5 2C42.5 1.17157 41.8284 0.5 41 0.5C40.1716 0.5 39.5 1.17157 39.5 2L42.5 2ZM39.9393 53.1006C40.5251 53.6864 41.4749 53.6864 42.0607 53.1006L51.6066 43.5547C52.1924 42.9689 52.1924 42.0192 51.6066 41.4334C51.0208 40.8476 50.0711 40.8476 49.4853 41.4334L41 49.9187L32.5147 41.4334C31.9289 40.8476 30.9792 40.8476 30.3934 41.4334C29.8076 42.0192 29.8076 42.9689 30.3934 43.5547L39.9393 53.1006ZM39.5 2L39.5 52.04H42.5L42.5 2L39.5 2Z" fill="#160045"/>
</svg>
