<svg width="399" height="160" viewBox="0 0 399 160" fill="none" xmlns="http://www.w3.org/2000/svg">
<rect y="32" width="399" height="96" rx="20" fill="black"/>
<path d="M225.4 84.125H215.806V77.7812H225.4C226.963 77.7812 228.223 77.4479 229.181 76.7812C230.16 76.1146 230.869 75.1979 231.306 74.0312C231.765 72.8646 231.994 71.5417 231.994 70.0625C231.994 68.6458 231.765 67.3125 231.306 66.0625C230.869 64.8125 230.171 63.8021 229.213 63.0312C228.254 62.2604 226.983 61.875 225.4 61.875H217.931V101H210.369V55.5H225.4C228.4 55.5 230.963 56.125 233.088 57.375C235.213 58.625 236.838 60.3438 237.963 62.5312C239.088 64.6979 239.65 67.1875 239.65 70C239.65 72.9375 239.088 75.4583 237.963 77.5625C236.838 79.6667 235.213 81.2917 233.088 82.4375C230.963 83.5625 228.4 84.125 225.4 84.125ZM263.456 61.75L252.456 101H244.519L258.956 55.5H263.894L263.456 61.75ZM272.238 101L261.206 61.75L260.675 55.5H265.706L280.206 101H272.238ZM272.425 84.0938V90.4688H251.238V84.0938H272.425ZM291.825 55.5H305.575C308.575 55.5 311.117 56.0208 313.2 57.0625C315.283 58.1042 316.867 59.6458 317.95 61.6875C319.054 63.7083 319.606 66.2188 319.606 69.2188C319.606 71.4896 319.263 73.4896 318.575 75.2188C317.908 76.9479 316.94 78.4062 315.669 79.5938C314.398 80.7604 312.867 81.6667 311.075 82.3125L308.856 83.5312H297.231L297.2 77.1562H305.388C306.867 77.1562 308.096 76.8333 309.075 76.1875C310.054 75.5417 310.783 74.6458 311.263 73.5C311.763 72.3542 312.013 71.0521 312.013 69.5938C312.013 68.0312 311.794 66.6771 311.356 65.5312C310.919 64.3646 310.231 63.4688 309.294 62.8438C308.356 62.1979 307.117 61.875 305.575 61.875H299.419V101H291.825V55.5ZM313.013 101L304.356 80.5625L312.263 80.5312L321.138 100.594V101H313.013ZM340.537 55.5V101H332.944V55.5H340.537ZM363.256 55.5L348.1 77.4688L339.006 88.625L337.569 80.6875L343.85 71.375L354.069 55.5H363.256ZM354.912 101L343.381 79.5L348.6 74.0938L363.881 101H354.912Z" fill="url(#paint0_linear_12_134)"/>
<path d="M215.806 84.125H214.806V85.125H215.806V84.125ZM215.806 77.7812V76.7812H214.806V77.7812H215.806ZM229.181 76.7812L228.618 75.9546L228.61 75.9603L229.181 76.7812ZM231.306 74.0312L230.375 73.6656L230.373 73.6728L230.37 73.6801L231.306 74.0312ZM231.306 66.0625L230.362 66.3929L230.365 66.3998L230.367 66.4068L231.306 66.0625ZM217.931 61.875V60.875H216.931V61.875H217.931ZM217.931 101V102H218.931V101H217.931ZM210.369 101H209.369V102H210.369V101ZM210.369 55.5V54.5H209.369V55.5H210.369ZM237.963 62.5312L237.073 62.9886L237.075 62.9921L237.963 62.5312ZM233.088 82.4375L233.555 83.3213L233.562 83.3177L233.088 82.4375ZM225.4 83.125H215.806V85.125H225.4V83.125ZM216.806 84.125V77.7812H214.806V84.125H216.806ZM215.806 78.7812H225.4V76.7812H215.806V78.7812ZM225.4 78.7812C227.099 78.7812 228.578 78.419 229.752 77.6022L228.61 75.9603C227.868 76.4768 226.826 76.7812 225.4 76.7812V78.7812ZM229.744 77.6078C230.903 76.8188 231.737 75.7316 232.243 74.3824L230.37 73.6801C230.001 74.6642 229.418 75.4104 228.618 75.9547L229.744 77.6078ZM232.237 74.3969C232.749 73.0948 232.994 71.6447 232.994 70.0625H230.994C230.994 71.4386 230.781 72.6343 230.375 73.6656L232.237 74.3969ZM232.994 70.0625C232.994 68.536 232.746 67.0854 232.245 65.7182L230.367 66.4068C230.783 67.5396 230.994 68.7557 230.994 70.0625H232.994ZM232.25 65.7321C231.756 64.3199 230.954 63.149 229.839 62.252L228.586 63.8105C229.387 64.4552 229.982 65.3051 230.362 66.3929L232.25 65.7321ZM229.839 62.252C228.658 61.3016 227.145 60.875 225.4 60.875V62.875C226.822 62.875 227.851 63.2192 228.586 63.8105L229.839 62.252ZM225.4 60.875H217.931V62.875H225.4V60.875ZM216.931 61.875V101H218.931V61.875H216.931ZM217.931 100H210.369V102H217.931V100ZM211.369 101V55.5H209.369V101H211.369ZM210.369 56.5H225.4V54.5H210.369V56.5ZM225.4 56.5C228.26 56.5 230.639 57.0951 232.58 58.2369L233.595 56.5131C231.286 55.1549 228.54 54.5 225.4 54.5V56.5ZM232.58 58.2369C234.543 59.3912 236.035 60.9698 237.073 62.9886L238.852 62.0739C237.64 59.7177 235.882 57.8588 233.595 56.5131L232.58 58.2369ZM237.075 62.9921C238.116 64.9961 238.65 67.3234 238.65 70H240.65C240.65 67.0516 240.059 64.3997 238.85 62.0704L237.075 62.9921ZM238.65 70C238.65 72.8105 238.112 75.1617 237.081 77.091L238.844 78.034C240.063 75.7549 240.65 73.0645 240.65 70H238.65ZM237.081 77.091C236.049 79.0197 234.567 80.5036 232.613 81.5573L233.562 83.3177C235.858 82.0798 237.626 80.3136 238.844 78.034L237.081 77.091ZM232.62 81.5537C230.67 82.5858 228.277 83.125 225.4 83.125V85.125C228.523 85.125 231.255 84.5392 233.555 83.3213L232.62 81.5537ZM263.456 61.75L264.419 62.0199L264.447 61.9216L264.454 61.8198L263.456 61.75ZM252.456 101V102H253.215L253.419 101.27L252.456 101ZM244.519 101L243.566 100.698L243.152 102H244.519V101ZM258.956 55.5V54.5H258.224L258.003 55.1976L258.956 55.5ZM263.894 55.5L264.891 55.5698L264.966 54.5H263.894V55.5ZM272.238 101L271.275 101.271L271.48 102H272.238V101ZM261.206 61.75L260.21 61.8347L260.218 61.9292L260.244 62.0206L261.206 61.75ZM260.675 55.5V54.5H259.586L259.679 55.5847L260.675 55.5ZM265.706 55.5L266.659 55.1964L266.437 54.5H265.706V55.5ZM280.206 101V102H281.574L281.159 100.696L280.206 101ZM272.425 84.0938H273.425V83.0938H272.425V84.0938ZM272.425 90.4688V91.4688H273.425V90.4688H272.425ZM251.238 90.4688H250.238V91.4688H251.238V90.4688ZM251.238 84.0938V83.0938H250.238V84.0938H251.238ZM262.493 61.4801L251.493 100.73L253.419 101.27L264.419 62.0199L262.493 61.4801ZM252.456 100H244.519V102H252.456V100ZM245.472 101.302L259.909 55.8024L258.003 55.1976L243.566 100.698L245.472 101.302ZM258.956 56.5H263.894V54.5H258.956V56.5ZM262.896 55.4302L262.459 61.6802L264.454 61.8198L264.891 55.5698L262.896 55.4302ZM273.2 100.729L262.169 61.4794L260.244 62.0206L271.275 101.271L273.2 100.729ZM262.203 61.6653L261.671 55.4153L259.679 55.5847L260.21 61.8347L262.203 61.6653ZM260.675 56.5H265.706V54.5H260.675V56.5ZM264.753 55.8036L279.253 101.304L281.159 100.696L266.659 55.1964L264.753 55.8036ZM280.206 100H272.238V102H280.206V100ZM271.425 84.0938V90.4688H273.425V84.0938H271.425ZM272.425 89.4688H251.238V91.4688H272.425V89.4688ZM252.238 90.4688V84.0938H250.238V90.4688H252.238ZM251.238 85.0938H272.425V83.0938H251.238V85.0938ZM291.825 55.5V54.5H290.825V55.5H291.825ZM317.95 61.6875L317.067 62.1562L317.072 62.167L317.95 61.6875ZM318.575 75.2188L317.646 74.8493L317.642 74.859L318.575 75.2188ZM315.669 79.5938L316.345 80.3304L316.352 80.3244L315.669 79.5938ZM311.075 82.3125L310.736 81.3718L310.662 81.3983L310.594 81.436L311.075 82.3125ZM308.856 83.5312V84.5312H309.113L309.338 84.4077L308.856 83.5312ZM297.231 83.5312L296.231 83.5362L296.236 84.5312H297.231V83.5312ZM297.2 77.1562V76.1562H296.195L296.2 77.1612L297.2 77.1562ZM311.263 73.5L310.346 73.1001L310.343 73.1071L310.34 73.1142L311.263 73.5ZM311.356 65.5312L310.42 65.8824L310.422 65.888L311.356 65.5312ZM309.294 62.8438L308.726 63.6673L308.733 63.6716L308.739 63.6758L309.294 62.8438ZM299.419 61.875V60.875H298.419V61.875H299.419ZM299.419 101V102H300.419V101H299.419ZM291.825 101H290.825V102H291.825V101ZM313.013 101L312.092 101.39L312.35 102H313.013V101ZM304.356 80.5625L304.352 79.5625L302.849 79.5684L303.435 80.9525L304.356 80.5625ZM312.263 80.5312L313.177 80.1267L312.912 79.5287L312.259 79.5313L312.263 80.5312ZM321.138 100.594H322.138V100.382L322.052 100.189L321.138 100.594ZM321.138 101V102H322.138V101H321.138ZM291.825 56.5H305.575V54.5H291.825V56.5ZM305.575 56.5C308.463 56.5 310.842 57.0017 312.753 57.9569L313.647 56.1681C311.391 55.0399 308.687 54.5 305.575 54.5V56.5ZM312.753 57.9569C314.652 58.9063 316.082 60.2999 317.067 62.1562L318.833 61.2188C317.652 58.9918 315.915 57.302 313.647 56.1681L312.753 57.9569ZM317.072 62.167C318.076 64.0029 318.606 66.3371 318.606 69.2188H320.606C320.606 66.1004 320.033 63.4138 318.828 61.208L317.072 62.167ZM318.606 69.2188C318.606 71.3901 318.277 73.2605 317.646 74.8493L319.504 75.5882C320.248 73.7187 320.606 71.589 320.606 69.2188H318.606ZM317.642 74.859C317.026 76.4567 316.139 77.7854 314.986 78.8631L316.352 80.3244C317.74 79.0271 318.791 77.4392 319.508 75.5785L317.642 74.859ZM314.992 78.8571C313.829 79.9251 312.416 80.7662 310.736 81.3718L311.414 83.2532C313.318 82.5671 314.967 81.5957 316.345 80.3304L314.992 78.8571ZM310.594 81.436L308.375 82.6548L309.338 84.4077L311.556 83.189L310.594 81.436ZM308.856 82.5312H297.231V84.5312H308.856V82.5312ZM298.231 83.5263L298.2 77.1513L296.2 77.1612L296.231 83.5362L298.231 83.5263ZM297.2 78.1562H305.388V76.1562H297.2V78.1562ZM305.388 78.1562C307.011 78.1562 308.445 77.8009 309.626 77.0223L308.524 75.3527C307.747 75.8658 306.722 76.1562 305.388 76.1562V78.1562ZM309.626 77.0223C310.781 76.2605 311.634 75.2036 312.185 73.8858L310.34 73.1142C309.933 74.0881 309.328 74.8229 308.524 75.3527L309.626 77.0223ZM312.179 73.8999C312.742 72.6087 313.013 71.167 313.013 69.5938H311.013C311.013 70.9371 310.783 72.0996 310.346 73.1001L312.179 73.8999ZM313.013 69.5938C313.013 67.9413 312.782 66.4607 312.29 65.1745L310.422 65.888C310.806 66.8934 311.013 68.1212 311.013 69.5938H313.013ZM312.293 65.1801C311.79 63.8389 310.979 62.7653 309.848 62.0117L308.739 63.6758C309.484 64.1722 310.048 64.8903 310.42 65.8824L312.293 65.1801ZM309.861 62.0202C308.707 61.2252 307.249 60.875 305.575 60.875V62.875C306.984 62.875 308.006 63.1706 308.726 63.6673L309.861 62.0202ZM305.575 60.875H299.419V62.875H305.575V60.875ZM298.419 61.875V101H300.419V61.875H298.419ZM299.419 100H291.825V102H299.419V100ZM292.825 101V55.5H290.825V101H292.825ZM313.933 100.61L305.277 80.1725L303.435 80.9525L312.092 101.39L313.933 100.61ZM304.36 81.5625L312.266 81.5312L312.259 79.5313L304.352 79.5625L304.36 81.5625ZM311.348 80.9358L320.223 100.998L322.052 100.189L313.177 80.1267L311.348 80.9358ZM320.138 100.594V101H322.138V100.594H320.138ZM321.138 100H313.013V102H321.138V100ZM340.538 55.5H341.538V54.5H340.538V55.5ZM340.538 101V102H341.538V101H340.538ZM332.944 101H331.944V102H332.944V101ZM332.944 55.5V54.5H331.944V55.5H332.944ZM363.256 55.5L364.079 56.0679L365.161 54.5H363.256V55.5ZM348.1 77.4688L348.875 78.1006L348.9 78.0696L348.923 78.0366L348.1 77.4688ZM339.006 88.625L338.022 88.8032L338.409 90.9401L339.781 89.2568L339.006 88.625ZM337.569 80.6875L336.74 80.1283L336.512 80.4655L336.585 80.8657L337.569 80.6875ZM343.85 71.375L344.679 71.9342L344.685 71.9253L344.691 71.9163L343.85 71.375ZM354.069 55.5V54.5H353.523L353.228 54.9587L354.069 55.5ZM354.913 101L354.031 101.473L354.314 102H354.913V101ZM343.381 79.5L342.662 78.8055L342.155 79.3301L342.5 79.9726L343.381 79.5ZM348.6 74.0938L349.47 73.5999L348.809 72.4372L347.881 73.3992L348.6 74.0938ZM363.881 101V102H365.599L364.751 100.506L363.881 101ZM339.538 55.5V101H341.538V55.5H339.538ZM340.538 100H332.944V102H340.538V100ZM333.944 101V55.5H331.944V101H333.944ZM332.944 56.5H340.538V54.5H332.944V56.5ZM362.433 54.9321L347.277 76.9009L348.923 78.0366L364.079 56.0679L362.433 54.9321ZM347.325 76.8369L338.231 87.9932L339.781 89.2568L348.875 78.1006L347.325 76.8369ZM339.99 88.4468L338.553 80.5093L336.585 80.8657L338.022 88.8032L339.99 88.4468ZM338.398 81.2467L344.679 71.9342L343.021 70.8158L336.74 80.1283L338.398 81.2467ZM344.691 71.9163L354.91 56.0413L353.228 54.9587L343.009 70.8337L344.691 71.9163ZM354.069 56.5H363.256V54.5H354.069V56.5ZM355.794 100.527L344.262 79.0274L342.5 79.9726L354.031 101.473L355.794 100.527ZM344.101 80.1945L349.319 74.7883L347.881 73.3992L342.662 78.8055L344.101 80.1945ZM347.73 74.5876L363.012 101.494L364.751 100.506L349.47 73.5999L347.73 74.5876ZM363.881 100H354.913V102H363.881V100Z" fill="url(#paint1_linear_12_134)"/>
<path d="M71.5 26L190 5C190 5 191 14 183.5 25C176 36 164 39 164 39L35 61.5C35 61.5 37 52.8405 47.25 41C57.5 29.1595 71.5 26 71.5 26Z" stroke="url(#paint2_linear_12_134)" stroke-width="7"/>
<path d="M156.5 58.5C116.5 64 35 79 35 79C35 79 35.7941 87 47.25 96.5C58.7059 106 79 101.5 79 101.5C79 101.5 115 95.5 140 90.5C151 88.3 159.5 87.5 160.5 94.5C161.5 101.5 156.5 104.128 133 108.5C94.6926 115.627 69.246 119.524 62 121.5C55.5 123.273 48 126.5 41.5 136C35 145.5 35 155 35 155C35 155 120 140.25 154.5 133.5C171.5 130.174 179 119.944 182.5 114.5C190.874 101.473 192.5 85.5 186.5 74.5C184.229 70.3358 174 56.0938 156.5 58.5Z" stroke="url(#paint3_linear_12_134)" stroke-width="7"/>
<defs>
<linearGradient id="paint0_linear_12_134" x1="206" y1="79.5" x2="364" y2="79.5" gradientUnits="userSpaceOnUse">
<stop stop-color="#8502FF"/>
<stop offset="0.502309" stop-color="#578AF0"/>
<stop offset="1" stop-color="#5DD0EA"/>
</linearGradient>
<linearGradient id="paint1_linear_12_134" x1="206" y1="79.5" x2="364" y2="79.5" gradientUnits="userSpaceOnUse">
<stop stop-color="#8502FF"/>
<stop offset="0.502309" stop-color="#578AF0"/>
<stop offset="1" stop-color="#5DD0EA"/>
</linearGradient>
<linearGradient id="paint2_linear_12_134" x1="35" y1="80" x2="190.096" y2="80" gradientUnits="userSpaceOnUse">
<stop stop-color="#8502FF"/>
<stop offset="0.502309" stop-color="#578AF0"/>
<stop offset="1" stop-color="#5DD0EA"/>
</linearGradient>
<linearGradient id="paint3_linear_12_134" x1="35" y1="80" x2="190.096" y2="80" gradientUnits="userSpaceOnUse">
<stop stop-color="#8502FF"/>
<stop offset="0.502309" stop-color="#578AF0"/>
<stop offset="1" stop-color="#5DD0EA"/>
</linearGradient>
</defs>
</svg>
