<svg width="180" height="56" viewBox="0 0 180 56" fill="none" xmlns="http://www.w3.org/2000/svg">
<path d="M62.82 31.3438H55.6247V26.5859H62.82C63.9919 26.5859 64.9372 26.3359 65.6559 25.8359C66.3903 25.3359 66.9216 24.6484 67.2497 23.7734C67.5934 22.8984 67.7653 21.9062 67.7653 20.7969C67.7653 19.7344 67.5934 18.7344 67.2497 17.7969C66.9216 16.8594 66.3981 16.1016 65.6794 15.5234C64.9606 14.9453 64.0075 14.6562 62.82 14.6562H57.2184V44H51.5466V9.875H62.82C65.07 9.875 66.9919 10.3438 68.5856 11.2812C70.1794 12.2188 71.3981 13.5078 72.2419 15.1484C73.0856 16.7734 73.5075 18.6406 73.5075 20.75C73.5075 22.9531 73.0856 24.8438 72.2419 26.4219C71.3981 28 70.1794 29.2188 68.5856 30.0781C66.9919 30.9219 65.07 31.3438 62.82 31.3438ZM95.6822 14.5625L87.4322 44H81.4791L92.3072 9.875H96.0103L95.6822 14.5625ZM102.268 44L93.9947 14.5625L93.5962 9.875H97.3697L108.245 44H102.268ZM102.409 31.3203V36.1016H86.5181V31.3203H102.409ZM121.279 9.875H131.591C133.841 9.875 135.747 10.2656 137.31 11.0469C138.872 11.8281 140.06 12.9844 140.872 14.5156C141.701 16.0312 142.115 17.9141 142.115 20.1641C142.115 21.8672 141.857 23.3672 141.341 24.6641C140.841 25.9609 140.115 27.0547 139.162 27.9453C138.208 28.8203 137.06 29.5 135.716 29.9844L134.052 30.8984H125.333L125.31 26.1172H131.451C132.56 26.1172 133.482 25.875 134.216 25.3906C134.951 24.9062 135.497 24.2344 135.857 23.375C136.232 22.5156 136.419 21.5391 136.419 20.4453C136.419 19.2734 136.255 18.2578 135.927 17.3984C135.599 16.5234 135.083 15.8516 134.38 15.3828C133.677 14.8984 132.747 14.6562 131.591 14.6562H126.974V44H121.279V9.875ZM137.169 44L130.677 28.6719L136.607 28.6484L143.263 43.6953V44H137.169ZM162.133 9.875V44H156.438V9.875H162.133ZM179.172 9.875L167.805 26.3516L160.985 34.7188L159.907 28.7656L164.618 21.7812L172.282 9.875H179.172ZM172.914 44L164.266 27.875L168.18 23.8203L179.641 44H172.914Z" fill="url(#paint0_linear_75_15)"/>
<path d="M55.6247 31.3438H54.6247V32.3438H55.6247V31.3438ZM55.6247 26.5859V25.5859H54.6247V26.5859H55.6247ZM65.6559 25.8359L65.0931 25.0093L65.0849 25.015L65.6559 25.8359ZM67.2497 23.7734L66.3189 23.4078L66.3161 23.415L66.3134 23.4223L67.2497 23.7734ZM67.2497 17.7969L66.3058 18.1272L66.3083 18.1342L66.3108 18.1411L67.2497 17.7969ZM57.2184 14.6562V13.6562H56.2184V14.6562H57.2184ZM57.2184 44V45H58.2184V44H57.2184ZM51.5466 44H50.5466V45H51.5466V44ZM51.5466 9.875V8.875H50.5466V9.875H51.5466ZM72.2419 15.1484L71.3526 15.6058L71.3544 15.6093L72.2419 15.1484ZM68.5856 30.0781L69.0535 30.9619L69.0602 30.9583L68.5856 30.0781ZM62.82 30.3438H55.6247V32.3438H62.82V30.3438ZM56.6247 31.3438V26.5859H54.6247V31.3438H56.6247ZM55.6247 27.5859H62.82V25.5859H55.6247V27.5859ZM62.82 27.5859C64.1281 27.5859 65.2924 27.307 66.227 26.6568L65.0849 25.015C64.582 25.3649 63.8556 25.5859 62.82 25.5859V27.5859ZM66.2187 26.6625C67.1328 26.0402 67.7894 25.1822 68.186 24.1246L66.3134 23.4223C66.0537 24.1147 65.6478 24.6317 65.0931 25.0093L66.2187 26.6625ZM68.1804 24.1391C68.5774 23.1287 68.7653 22.0093 68.7653 20.7969H66.7653C66.7653 21.8032 66.6095 22.6682 66.3189 23.4078L68.1804 24.1391ZM68.7653 20.7969C68.7653 19.6245 68.5753 18.5073 68.1886 17.4526L66.3108 18.1411C66.6116 18.9615 66.7653 19.8442 66.7653 20.7969H68.7653ZM68.1935 17.4665C67.8086 16.3668 67.1816 15.4484 66.3061 14.7442L65.0526 16.3027C65.6146 16.7547 66.0345 17.3519 66.3058 18.1272L68.1935 17.4665ZM66.3061 14.7442C65.3641 13.9865 64.169 13.6562 62.82 13.6562V15.6562C63.846 15.6562 64.5572 15.9041 65.0526 16.3027L66.3061 14.7442ZM62.82 13.6562H57.2184V15.6562H62.82V13.6562ZM56.2184 14.6562V44H58.2184V14.6562H56.2184ZM57.2184 43H51.5466V45H57.2184V43ZM52.5466 44V9.875H50.5466V44H52.5466ZM51.5466 10.875H62.82V8.875H51.5466V10.875ZM62.82 10.875C64.9303 10.875 66.6687 11.3138 68.0786 12.1432L69.0926 10.4193C67.3151 9.37367 65.2097 8.875 62.82 8.875V10.875ZM68.0786 12.1432C69.5096 12.9849 70.5956 14.1339 71.3526 15.6058L73.1312 14.6911C72.2006 12.8817 70.8491 11.4526 69.0926 10.4193L68.0786 12.1432ZM71.3544 15.6093C72.1137 17.0716 72.5075 18.7765 72.5075 20.75H74.5075C74.5075 18.5047 74.0576 16.4752 73.1294 14.6876L71.3544 15.6093ZM72.5075 20.75C72.5075 22.8261 72.1103 24.5471 71.36 25.9504L73.1237 26.8934C74.061 25.1404 74.5075 23.0801 74.5075 20.75H72.5075ZM71.36 25.9504C70.6101 27.3531 69.534 28.4306 68.111 29.1979L69.0602 30.9583C70.8248 30.0069 72.1862 28.6469 73.1237 26.8934L71.36 25.9504ZM68.1177 29.1943C66.6995 29.9452 64.9466 30.3438 62.82 30.3438V32.3438C65.1934 32.3438 67.2842 31.8986 69.0535 30.9619L68.1177 29.1943ZM95.6822 14.5625L96.6451 14.8324L96.6726 14.7341L96.6797 14.6323L95.6822 14.5625ZM87.4322 44V45H88.1905L88.3951 44.2699L87.4322 44ZM81.4791 44L80.5259 43.6976L80.1126 45H81.4791V44ZM92.3072 9.875V8.875H91.5754L91.354 9.57255L92.3072 9.875ZM96.0103 9.875L97.0079 9.94483L97.0828 8.875H96.0103V9.875ZM102.268 44L101.305 44.2706L101.51 45H102.268V44ZM93.9947 14.5625L92.9983 14.6472L93.0063 14.7417L93.032 14.8331L93.9947 14.5625ZM93.5962 9.875V8.875H92.5076L92.5998 9.95969L93.5962 9.875ZM97.3697 9.875L98.3225 9.57136L98.1006 8.875H97.3697V9.875ZM108.245 44V45H109.613L109.197 43.6964L108.245 44ZM102.409 31.3203H103.409V30.3203H102.409V31.3203ZM102.409 36.1016V37.1016H103.409V36.1016H102.409ZM86.5181 36.1016H85.5181V37.1016H86.5181V36.1016ZM86.5181 31.3203V30.3203H85.5181V31.3203H86.5181ZM94.7193 14.2926L86.4693 43.7301L88.3951 44.2699L96.6451 14.8324L94.7193 14.2926ZM87.4322 43H81.4791V45H87.4322V43ZM82.4322 44.3024L93.2604 10.1774L91.354 9.57255L80.5259 43.6976L82.4322 44.3024ZM92.3072 10.875H96.0103V8.875H92.3072V10.875ZM95.0128 9.80517L94.6846 14.4927L96.6797 14.6323L97.0079 9.94483L95.0128 9.80517ZM103.231 43.7294L94.9574 14.2919L93.032 14.8331L101.305 44.2706L103.231 43.7294ZM94.9911 14.4778L94.5927 9.79031L92.5998 9.95969L92.9983 14.6472L94.9911 14.4778ZM93.5962 10.875H97.3697V8.875H93.5962V10.875ZM96.4169 10.1786L107.292 44.3036L109.197 43.6964L98.3225 9.57136L96.4169 10.1786ZM108.245 43H102.268V45H108.245V43ZM101.409 31.3203V36.1016H103.409V31.3203H101.409ZM102.409 35.1016H86.5181V37.1016H102.409V35.1016ZM87.5181 36.1016V31.3203H85.5181V36.1016H87.5181ZM86.5181 32.3203H102.409V30.3203H86.5181V32.3203ZM121.279 9.875V8.875H120.279V9.875H121.279ZM140.872 14.5156L139.989 14.9844L139.995 14.9951L140.872 14.5156ZM141.341 24.6641L140.412 24.2946L140.408 24.3043L141.341 24.6641ZM139.162 27.9453L139.838 28.682L139.844 28.676L139.162 27.9453ZM135.716 29.9844L135.377 29.0436L135.303 29.0702L135.235 29.1079L135.716 29.9844ZM134.052 30.8984V31.8984H134.309L134.534 31.7749L134.052 30.8984ZM125.333 30.8984L124.333 30.9033L124.338 31.8984H125.333V30.8984ZM125.31 26.1172V25.1172H124.305L124.31 26.1221L125.31 26.1172ZM135.857 23.375L134.94 22.9751L134.937 22.9821L134.934 22.9892L135.857 23.375ZM135.927 17.3984L134.991 17.7496L134.993 17.7551L135.927 17.3984ZM134.38 15.3828L133.813 16.2063L133.819 16.2106L133.826 16.2149L134.38 15.3828ZM126.974 14.6562V13.6562H125.974V14.6562H126.974ZM126.974 44V45H127.974V44H126.974ZM121.279 44H120.279V45H121.279V44ZM137.169 44L136.249 44.39L136.507 45H137.169V44ZM130.677 28.6719L130.673 27.6719L129.17 27.6778L129.756 29.0619L130.677 28.6719ZM136.607 28.6484L137.521 28.2439L137.257 27.6459L136.603 27.6484L136.607 28.6484ZM143.263 43.6953H144.263V43.484L144.178 43.2908L143.263 43.6953ZM143.263 44V45H144.263V44H143.263ZM121.279 10.875H131.591V8.875H121.279V10.875ZM131.591 10.875C133.729 10.875 135.473 11.2465 136.863 11.9413L137.757 10.1524C136.022 9.28472 133.953 8.875 131.591 8.875V10.875ZM136.863 11.9413C138.241 12.6303 139.275 13.6384 139.989 14.9843L141.756 14.0469C140.845 12.3303 139.504 11.026 137.757 10.1524L136.863 11.9413ZM139.995 14.9951C140.722 16.3258 141.115 18.0324 141.115 20.1641H143.115C143.115 17.7957 142.679 15.7367 141.75 14.0361L139.995 14.9951ZM141.115 20.1641C141.115 21.7677 140.872 23.1381 140.412 24.2946L142.27 25.0335C142.842 23.5963 143.115 21.9666 143.115 20.1641H141.115ZM140.408 24.3043C139.959 25.4697 139.314 26.4339 138.479 27.2147L139.844 28.676C140.915 27.6755 141.724 26.4522 142.274 25.0238L140.408 24.3043ZM138.485 27.2087C137.64 27.985 136.609 28.5996 135.377 29.0436L136.055 30.9251C137.511 30.4004 138.777 29.6556 139.838 28.682L138.485 27.2087ZM135.235 29.1079L133.571 30.022L134.534 31.7749L136.198 30.8609L135.235 29.1079ZM134.052 29.8984H125.333V31.8984H134.052V29.8984ZM126.333 30.8935L126.31 26.1123L124.31 26.1221L124.333 30.9033L126.333 30.8935ZM125.31 27.1172H131.451V25.1172H125.31V27.1172ZM131.451 27.1172C132.705 27.1172 133.831 26.8426 134.767 26.2254L133.666 24.5559C133.133 24.9074 132.415 25.1172 131.451 25.1172V27.1172ZM134.767 26.2254C135.677 25.6251 136.348 24.7921 136.779 23.7608L134.934 22.9892C134.647 23.6766 134.224 24.1874 133.666 24.5559L134.767 26.2254ZM136.773 23.7749C137.212 22.7702 137.419 21.654 137.419 20.4453H135.419C135.419 21.4241 135.252 22.2611 134.94 22.9751L136.773 23.7749ZM137.419 20.4453C137.419 19.1834 137.243 18.0414 136.861 17.0417L134.993 17.7551C135.268 18.4742 135.419 19.3634 135.419 20.4453H137.419ZM136.864 17.0473C136.47 15.9978 135.831 15.1481 134.935 14.5508L133.826 16.2149C134.336 16.555 134.728 17.0491 134.991 17.7496L136.864 17.0473ZM134.948 14.5593C134.028 13.9257 132.88 13.6562 131.591 13.6562V15.6562C132.615 15.6562 133.326 15.8711 133.813 16.2063L134.948 14.5593ZM131.591 13.6562H126.974V15.6562H131.591V13.6562ZM125.974 14.6562V44H127.974V14.6562H125.974ZM126.974 43H121.279V45H126.974V43ZM122.279 44V9.875H120.279V44H122.279ZM138.09 43.61L131.598 28.2819L129.756 29.0619L136.249 44.39L138.09 43.61ZM130.681 29.6719L136.611 29.6484L136.603 27.6484L130.673 27.6719L130.681 29.6719ZM135.692 29.053L142.349 44.0999L144.178 43.2908L137.521 28.2439L135.692 29.053ZM142.263 43.6953V44H144.263V43.6953H142.263ZM143.263 43H137.169V45H143.263V43ZM162.133 9.875H163.133V8.875H162.133V9.875ZM162.133 44V45H163.133V44H162.133ZM156.438 44H155.438V45H156.438V44ZM156.438 9.875V8.875H155.438V9.875H156.438ZM179.172 9.875L179.995 10.4429L181.077 8.875H179.172V9.875ZM167.805 26.3516L168.58 26.9834L168.605 26.9524L168.628 26.9194L167.805 26.3516ZM160.985 34.7188L160.001 34.897L160.388 37.0339L161.76 35.3506L160.985 34.7188ZM159.907 28.7656L159.078 28.2064L158.85 28.5436L158.923 28.9438L159.907 28.7656ZM164.618 21.7812L165.447 22.3404L165.453 22.3315L165.458 22.3225L164.618 21.7812ZM172.282 9.875V8.875H171.736L171.441 9.33374L172.282 9.875ZM172.914 44L172.033 44.4726L172.316 45H172.914V44ZM164.266 27.875L163.546 27.1805L163.04 27.7051L163.385 28.3476L164.266 27.875ZM168.18 23.8203L169.05 23.3265L168.389 22.1638L167.461 23.1258L168.18 23.8203ZM179.641 44V45H181.359L180.51 43.5061L179.641 44ZM161.133 9.875V44H163.133V9.875H161.133ZM162.133 43H156.438V45H162.133V43ZM157.438 44V9.875H155.438V44H157.438ZM156.438 10.875H162.133V8.875H156.438V10.875ZM178.349 9.30713L166.982 25.7837L168.628 26.9194L179.995 10.4429L178.349 9.30713ZM167.03 25.7197L160.21 34.0869L161.76 35.3506L168.58 26.9834L167.03 25.7197ZM161.969 34.5405L160.891 28.5874L158.923 28.9438L160.001 34.897L161.969 34.5405ZM160.736 29.3248L165.447 22.3404L163.788 21.2221L159.078 28.2064L160.736 29.3248ZM165.458 22.3225L173.122 10.4163L171.441 9.33374L163.777 21.24L165.458 22.3225ZM172.282 10.875H179.172V8.875H172.282V10.875ZM173.796 43.5274L165.147 27.4024L163.385 28.3476L172.033 44.4726L173.796 43.5274ZM164.985 28.5695L168.899 24.5148L167.461 23.1258L163.546 27.1805L164.985 28.5695ZM167.31 24.3142L178.771 44.4939L180.51 43.5061L169.05 23.3265L167.31 24.3142ZM179.641 43H172.914V45H179.641V43Z" fill="url(#paint1_linear_75_15)"/>
<path d="M2 26.7733L1.91155 26.2812L1.45573 26.3631L1.50256 26.8239L2 26.7733ZM2 26.7733C1.91155 26.2812 1.91163 26.2812 1.91178 26.2812L1.91244 26.2811L1.91504 26.2806L1.92538 26.2787L1.96627 26.2714L2.12662 26.2427L2.74327 26.1326C3.27895 26.0371 4.05448 25.8994 5.0141 25.7302C6.9333 25.3919 9.58902 24.9277 12.5351 24.4246C18.4246 23.4189 25.4832 22.2558 30.1354 21.6311C32.3227 21.3374 34.0589 22.0637 35.305 22.9785C36.5418 23.8863 37.3112 24.9892 37.6018 25.5095C39.1093 28.2083 38.671 32.0318 36.6545 35.0949C35.8067 36.3828 33.9664 38.8278 29.8315 39.6178C25.8226 40.3837 18.8839 41.6028 12.9511 42.6298C9.98397 43.1434 7.26713 43.6092 5.29209 43.9466C4.30456 44.1153 3.50246 44.2519 2.94723 44.3463L2.3072 44.455L2.14045 44.4833L2.0979 44.4905L2.08715 44.4924L2.08445 44.4928L2.08377 44.4929C2.08361 44.493 2.08354 44.493 2 44M2 26.7733C1.50256 26.8239 1.5026 26.8242 1.50263 26.8246L1.50271 26.8253L1.50287 26.8268L1.50326 26.8304L1.50435 26.8396C1.50521 26.8466 1.50636 26.8554 1.50788 26.8659C1.51091 26.8868 1.5154 26.9146 1.52192 26.9489C1.53497 27.0175 1.55612 27.1118 1.58999 27.2291C1.65777 27.4637 1.77622 27.789 1.98164 28.1812C2.39327 28.967 3.14886 30.0111 4.52874 31.1286C5.9915 32.3131 7.97493 32.5996 9.52068 32.6141C10.304 32.6215 10.9994 32.5591 11.4991 32.495C11.7493 32.4629 11.9516 32.4302 12.0925 32.4053C12.1629 32.3929 12.2181 32.3823 12.2564 32.3748L12.3009 32.3658L12.3048 32.365L12.3177 32.3629L12.389 32.3512L12.6645 32.3061C12.9046 32.2666 13.2539 32.209 13.6913 32.1364C14.566 31.9911 15.7926 31.7855 17.2008 31.5445C20.0162 31.0627 23.5606 30.4385 26.4679 29.8707C27.7528 29.6198 28.8127 29.4671 29.568 29.5485C29.9395 29.5885 30.1859 29.6807 30.3429 29.8016C30.4852 29.9112 30.594 30.0745 30.6356 30.359C30.6846 30.6936 30.6502 30.9067 30.5595 31.0722C30.4656 31.2435 30.2704 31.4383 29.8479 31.6494C28.9804 32.0828 27.4007 32.4697 24.6578 32.9681C20.7691 33.6746 17.452 34.2409 14.8079 34.6923C14.4312 34.7566 14.0682 34.8186 13.7192 34.8783C10.9353 35.3546 9.00752 35.692 8.13841 35.9235C6.55738 36.3446 4.69669 37.1265 3.09925 39.4064C2.30006 40.5471 1.90115 41.6864 1.7017 42.5405C1.60185 42.968 1.55149 43.326 1.52606 43.5801C1.51334 43.7072 1.50682 43.8086 1.50349 43.8799C1.50182 43.9156 1.50095 43.9438 1.5005 43.964L1.50008 43.9882L1.50001 43.9957L1.5 43.9982L1.5 43.9992L1.5 43.9996C1.5 43.9998 1.5 44 2 44M2 44L2.08354 44.493L1.5 44.5919V44H2ZM10.3869 14.2673L10.3757 14.2693L10.3646 14.2717L10.4722 14.76C10.3646 14.2717 10.3644 14.2718 10.3642 14.2718L10.3638 14.2719L10.3628 14.2721L10.3598 14.2728L10.3503 14.275L10.3175 14.2827C10.2897 14.2895 10.25 14.2994 10.1996 14.3128C10.0988 14.3395 9.95459 14.3803 9.77525 14.4375C9.41685 14.5519 8.91642 14.7325 8.33967 14.9999C7.18883 15.5335 5.71788 16.4198 4.46925 17.8283C3.24986 19.2039 2.51475 20.402 2.08238 21.266C1.86628 21.6978 1.72606 22.0457 1.63884 22.2899C1.59523 22.412 1.56489 22.5081 1.54494 22.5759C1.53497 22.6098 1.52759 22.6366 1.52246 22.656L1.51639 22.6794L1.51454 22.6869L1.51389 22.6896L1.51364 22.6907L1.51352 22.6912C1.51347 22.6914 1.51342 22.6916 2 22.8067L1.51342 22.6916L1.33965 23.4263L2.08395 23.2996L32.0267 18.1996L32.0442 18.1966L32.0613 18.1924L31.9428 17.7067C32.0613 18.1924 32.0615 18.1924 32.0617 18.1923L32.0621 18.1922L32.0632 18.1919L32.066 18.1912L32.0748 18.189L32.1041 18.1813C32.1287 18.1747 32.1634 18.1651 32.2073 18.1522C32.295 18.1263 32.4194 18.0872 32.573 18.0325C32.8797 17.9232 33.3047 17.7511 33.7862 17.4973C34.7466 16.9912 35.9495 16.1508 36.8789 14.8196C37.7933 13.5101 38.1955 12.3103 38.367 11.427C38.4526 10.986 38.4806 10.625 38.4867 10.3695C38.4897 10.2418 38.4872 10.1403 38.4837 10.0683C38.482 10.0322 38.48 10.0036 38.4782 9.98266L38.476 9.95712L38.4751 9.94879L38.4748 9.94575L38.4746 9.94452L38.4746 9.94397C38.4746 9.94372 38.4745 9.94347 37.9777 10L38.4745 9.94347L38.4146 9.41696L37.8925 9.50732L10.3869 14.2673Z" fill="url(#paint2_linear_75_15)" stroke="url(#paint3_linear_75_15)"/>
<defs>
<linearGradient id="paint0_linear_75_15" x1="48" y1="28" x2="180" y2="28" gradientUnits="userSpaceOnUse">
<stop stop-color="#8502FF"/>
<stop offset="0.502309" stop-color="#578AF0"/>
<stop offset="1" stop-color="#5DD0EA"/>
</linearGradient>
<linearGradient id="paint1_linear_75_15" x1="48" y1="28" x2="180" y2="28" gradientUnits="userSpaceOnUse">
<stop stop-color="#8502FF"/>
<stop offset="0.502309" stop-color="#578AF0"/>
<stop offset="1" stop-color="#5DD0EA"/>
</linearGradient>
<linearGradient id="paint2_linear_75_15" x1="2" y1="27" x2="38" y2="27" gradientUnits="userSpaceOnUse">
<stop stop-color="#8502FF"/>
<stop offset="0.502309" stop-color="#578AF0"/>
<stop offset="1" stop-color="#5DD0EA"/>
</linearGradient>
<linearGradient id="paint3_linear_75_15" x1="2" y1="27" x2="38" y2="27" gradientUnits="userSpaceOnUse">
<stop stop-color="#8502FF"/>
<stop offset="0.502309" stop-color="#578AF0"/>
<stop offset="1" stop-color="#5DD0EA"/>
</linearGradient>
</defs>
</svg>
