<svg width="202" height="38" viewBox="0 0 202 38" fill="none" xmlns="http://www.w3.org/2000/svg">
<path d="M142 0L146.266 13.1287H160.07L148.902 21.2426L153.168 34.3713L142 26.2574L130.832 34.3713L135.098 21.2426L123.93 13.1287H137.734L142 0Z" fill="#FF0000"/>
<path d="M183 0L187.266 13.1287H201.07L189.902 21.2426L194.168 34.3713L183 26.2574L171.832 34.3713L176.098 21.2426L164.93 13.1287H178.734L183 0Z" fill="#FF0000"/>
<path d="M187.5 13L183 0V26.5L194.5 35L190.5 21.5L201.5 13H187.5Z" fill="black"/>
<path d="M101 0L105.266 13.1287H119.07L107.902 21.2426L112.168 34.3713L101 26.2574L89.8321 34.3713L94.0978 21.2426L82.9299 13.1287H96.7342L101 0Z" fill="#FF0000"/>
<path d="M60 0L64.2658 13.1287H78.0701L66.9022 21.2426L71.1679 34.3713L60 26.2574L48.8321 34.3713L53.0978 21.2426L41.9299 13.1287H55.7342L60 0Z" fill="#FF0000"/>
<path d="M19 0L23.2658 13.1287H37.0701L25.9022 21.2426L30.1679 34.3713L19 26.2574L7.83208 34.3713L12.0978 21.2426L0.929926 13.1287H14.7342L19 0Z" fill="#FF0000"/>
</svg>
