<svg width="164" height="56" viewBox="0 0 164 56" fill="none" xmlns="http://www.w3.org/2000/svg">
<rect y="8" width="164" height="40" rx="6" fill="url(#paint0_linear_102_24)"/>
<path d="M85.53 29.6719H81.9323V27.293H85.53C86.1159 27.293 86.5886 27.168 86.948 26.918C87.3152 26.668 87.5808 26.3242 87.7448 25.8867C87.9167 25.4492 88.0027 24.9531 88.0027 24.3984C88.0027 23.8672 87.9167 23.3672 87.7448 22.8984C87.5808 22.4297 87.3191 22.0508 86.9597 21.7617C86.6003 21.4727 86.1237 21.3281 85.53 21.3281H82.7292V36H79.8933V18.9375H85.53C86.655 18.9375 87.6159 19.1719 88.4128 19.6406C89.2097 20.1094 89.8191 20.7539 90.2409 21.5742C90.6628 22.3867 90.8737 23.3203 90.8737 24.375C90.8737 25.4766 90.6628 26.4219 90.2409 27.2109C89.8191 28 89.2097 28.6094 88.4128 29.0391C87.6159 29.4609 86.655 29.6719 85.53 29.6719ZM103.881 21.2812L99.7561 36H96.7795L102.194 18.9375H104.045L103.881 21.2812ZM107.174 36L103.037 21.2812L102.838 18.9375H104.725L110.162 36H107.174ZM107.244 29.6602V32.0508H99.2991V29.6602H107.244ZM118.599 18.9375H123.756C124.881 18.9375 125.834 19.1328 126.615 19.5234C127.396 19.9141 127.99 20.4922 128.396 21.2578C128.81 22.0156 129.017 22.957 129.017 24.082C129.017 24.9336 128.888 25.6836 128.631 26.332C128.381 26.9805 128.017 27.5273 127.541 27.9727C127.064 28.4102 126.49 28.75 125.818 28.9922L124.986 29.4492H120.627L120.615 27.0586H123.685C124.24 27.0586 124.701 26.9375 125.068 26.6953C125.435 26.4531 125.709 26.1172 125.888 25.6875C126.076 25.2578 126.17 24.7695 126.17 24.2227C126.17 23.6367 126.088 23.1289 125.924 22.6992C125.76 22.2617 125.502 21.9258 125.15 21.6914C124.799 21.4492 124.334 21.3281 123.756 21.3281H121.447V36H118.599V18.9375ZM126.545 36L123.299 28.3359L126.263 28.3242L129.592 35.8477V36H126.545ZM140.947 18.9375V36H138.099V18.9375H140.947ZM149.466 18.9375L143.782 27.1758L140.372 31.3594L139.833 28.3828L142.189 24.8906L146.021 18.9375H149.466ZM146.337 36L142.013 27.9375L143.97 25.9102L149.7 36H146.337Z" fill="white"/>
<path d="M26.7083 9.28L67.9666 2C67.9666 2 68.3148 5.12 65.7035 8.93333C63.0922 12.7467 58.9141 13.7867 58.9141 13.7867L14 21.5867C14 21.5867 14.6963 18.5847 18.2651 14.48C21.8339 10.3753 26.7083 9.28 26.7083 9.28Z" stroke="white" stroke-width="2"/>
<path d="M56.3028 20.5467C42.376 22.4533 14 27.6533 14 27.6533C14 27.6533 14.2765 30.4267 18.2651 33.72C22.2537 37.0133 29.3195 35.4533 29.3195 35.4533C29.3195 35.4533 41.8537 33.3733 50.558 31.64C54.3879 30.8773 57.3474 30.6 57.6955 33.0267C58.0437 35.4533 56.3028 36.3643 48.1208 37.88C34.7833 40.3507 25.9235 41.7016 23.4006 42.3867C21.1375 43.0012 18.5262 44.12 16.2631 47.4133C14 50.7067 14 54 14 54C14 54 43.5946 48.8867 55.6065 46.5467C61.5254 45.3936 64.1367 41.8474 65.3553 39.96C68.271 35.4441 68.837 29.9067 66.748 26.0933C65.9572 24.6497 62.3958 19.7125 56.3028 20.5467Z" stroke="white" stroke-width="2"/>
<defs>
<linearGradient id="paint0_linear_102_24" x1="-9.16422e-07" y1="28" x2="164" y2="28" gradientUnits="userSpaceOnUse">
<stop stop-color="#8502FF"/>
<stop offset="0.502309" stop-color="#578AF0"/>
<stop offset="1" stop-color="#5DD0EA"/>
</linearGradient>
</defs>
</svg>
