<svg width="1200" height="107" viewBox="0 0 1200 107" fill="none" xmlns="http://www.w3.org/2000/svg">
<path fill-rule="evenodd" clip-rule="evenodd" d="M0 91.7143L22 76.4286C44 61.1429 89 30.5714 133 30.5714C178 30.5714 222 61.1429 267 66.2381C311 71.3333 356 50.9524 400 45.8571C444 40.7619 489 50.9524 533 63.6905C578 76.4286 622 91.7143 667 81.5238C711 71.3333 756 35.6667 800 35.6667C844 35.6667 889 71.3333 933 81.5238C978 91.7143 1022 76.4286 1067 76.4286C1111 76.4286 1156 91.7143 1178 99.3571L1200 107V2.6226e-06H1178C1156 2.6226e-06 1111 2.6226e-06 1067 2.6226e-06C1022 2.6226e-06 978 2.6226e-06 933 2.6226e-06C889 2.6226e-06 844 2.6226e-06 800 2.6226e-06C756 2.6226e-06 711 2.6226e-06 667 2.6226e-06C622 2.6226e-06 578 2.6226e-06 533 2.6226e-06C489 2.6226e-06 444 2.6226e-06 400 2.6226e-06C356 2.6226e-06 311 2.6226e-06 267 2.6226e-06C222 2.6226e-06 178 2.6226e-06 133 2.6226e-06C89 2.6226e-06 44 2.6226e-06 22 2.6226e-06H0L0 91.7143Z" fill="url(#paint0_linear_1_3)"/>
<defs>
<linearGradient id="paint0_linear_1_3" x1="0" y1="3.61547e-05" x2="1200" y2="-1.46485e-05" gradientUnits="userSpaceOnUse">
<stop stop-color="#5F0A87"/>
<stop offset="1" stop-color="#A4508B"/>
</linearGradient>
</defs>
</svg>
