<svg width="1200" height="107" viewBox="0 0 1200 107" fill="none" xmlns="http://www.w3.org/2000/svg">
<path fill-rule="evenodd" clip-rule="evenodd" d="M0 15.2857L22 30.5714C44 45.8571 89 76.4286 133 76.4286C178 76.4286 222 45.8571 267 40.7619C311 35.6667 356 56.0476 400 61.1429C444 66.2381 489 56.0476 533 43.3095C578 30.5714 622 15.2857 667 25.4762C711 35.6667 756 71.3333 800 71.3333C844 71.3333 889 35.6667 933 25.4762C978 15.2857 1022 30.5714 1067 30.5714C1111 30.5714 1156 15.2857 1178 7.64286L1200 0V107H1178C1156 107 1111 107 1067 107C1022 107 978 107 933 107C889 107 844 107 800 107C756 107 711 107 667 107C622 107 578 107 533 107C489 107 444 107 400 107C356 107 311 107 267 107C222 107 178 107 133 107C89 107 44 107 22 107H0V15.2857Z" fill="url(#paint0_linear_1_3)"/>
<defs>
<linearGradient id="paint0_linear_1_3" x1="0" y1="107" x2="1200" y2="107" gradientUnits="userSpaceOnUse">
<stop stop-color="#5F0A87"/>
<stop offset="1" stop-color="#A4508B"/>
</linearGradient>
</defs>
</svg>
