<svg width="40" height="40" viewBox="0 0 40 40" fill="none" xmlns="http://www.w3.org/2000/svg">
<g clip-path="url(#clip0_518_35)">
<path d="M19.9998 39.959C31.023 39.959 39.959 31.023 39.959 19.9998C39.959 8.97659 31.023 0.0405273 19.9998 0.0405273C8.97659 0.0405273 0.0405273 8.97659 0.0405273 19.9998C0.0405273 31.023 8.97659 39.959 19.9998 39.959Z" fill="#FC3F1D"/>
<path d="M27.2222 32.5298H22.8408V10.8594H20.8889C17.3111 10.8594 15.4371 12.6483 15.4371 15.3186C15.4371 18.3483 16.7297 19.752 19.4037 21.5409L21.6074 23.0261L15.2741 32.5261H10.563L16.263 24.0446C12.9852 21.7038 11.1408 19.4186 11.1408 15.5631C11.1408 10.7446 14.5 7.4668 20.8593 7.4668H27.1926V32.5224H27.2222V32.5298Z" fill="white"/>
</g>
<defs>
<clipPath id="clip0_518_35">
<rect width="40" height="40" fill="white"/>
</clipPath>
</defs>
</svg>
