<svg width="667" height="649" viewBox="0 0 667 649" fill="none" xmlns="http://www.w3.org/2000/svg">
<path d="M245 528.684C253.65 500.965 262.5 468.684 262.5 468.684L286 472.184C286 472.184 264.466 515.283 259 545.184C250.5 591.684 243.5 631.184 226 644.684C221.367 648.258 212.106 648.543 205 648.684C192.427 648.932 176.212 647.312 181 635.684C188 618.684 209.595 633.237 216.5 624.184C239 594.684 233.454 565.684 245 528.684Z" fill="#6C47F7"/>
<path d="M415.14 528.684C406.49 500.965 397.64 468.684 397.64 468.684L374.14 472.184C374.14 472.184 395.675 515.283 401.14 545.184C409.64 591.684 416.64 631.184 434.14 644.684C438.774 648.258 448.034 648.543 455.141 648.684C467.714 648.932 483.929 647.312 479.141 635.684C472.141 618.684 450.545 633.237 443.641 624.184C421.141 594.684 426.687 565.684 415.14 528.684Z" fill="#6C47F7"/>
<path d="M597.5 346.184C573.59 360.865 531 365.184 531 365.184L520.5 383.684C520.5 383.684 544 387.184 568 379.684C586.44 373.921 594.545 370.148 612 356.184C624.5 346.184 632.938 335.299 637 327.683C645 312.683 657 309.183 657 298.684C657 287.913 670.311 273.323 666 268.183C653 252.684 626 328.684 597.5 346.184Z" fill="#598AF0"/>
<path d="M85.5547 404.184C110.862 392.067 139.055 366.184 139.055 366.184L148.055 384.184C148.055 384.184 126.349 405.964 106.555 415.184C86.2917 424.621 79.6821 422.116 60.5547 433.684C51.0547 439.429 34.5787 441.003 26.5547 444.184C15.8448 448.429 1.74753 455.579 0.0546875 444.184C-1.17339 435.917 18.2846 424.89 26.5547 423.684C50.5547 420.184 60.9259 415.975 85.5547 404.184Z" fill="#598AF0"/>
<path d="M316.5 167.183C318.277 160.371 316.06 153.027 322.5 150.183C326.073 148.606 328.672 149.414 332.5 150.183C337.895 151.267 340.243 153.919 345 156.683C354.323 162.1 359.006 166.042 367.5 172.683C381.656 183.75 388.889 190.884 401.5 203.683C412.369 214.714 420.083 219.873 428 233.183C436.239 247.035 437.944 256.463 441.5 272.183C444.541 285.624 433.552 301.27 446 307.183C452.35 310.199 458.75 302.509 464 307.183C469.283 311.886 465.955 318.111 466 325.183C466.079 337.478 463.533 344.268 460.5 356.183C456.981 370.007 455.608 378.315 448.5 390.683C442.209 401.63 437.857 407.793 428 415.683C413.334 427.422 401.34 428.615 383 432.683C368.432 435.914 359.922 436.552 345 436.683C328.719 436.826 319.647 434.779 303.5 432.683C287.806 430.646 278.475 431.302 263.5 426.183C252.18 422.313 245.168 420.369 236 412.683C226.902 405.056 223.369 398.772 218 388.183C212.105 376.556 210.532 369.06 208.5 356.183C206.096 340.946 206.764 332.011 208.5 316.683C209.983 303.593 209.928 295.621 215.5 283.683C221.718 270.362 228.83 264.795 239.5 254.683C251.692 243.129 260.602 239.117 274.5 229.683C284.538 222.87 292.583 221.875 300.5 212.683C308.484 203.414 310.302 195.991 313.5 184.183C315.263 177.676 314.798 173.706 316.5 167.183Z" fill="#D9D9D9"/>
<path d="M228 184.183C223.346 195.021 225.987 204.003 218 212.683C213.927 217.11 210.211 217.942 205.5 221.683C200.192 225.898 196.788 227.934 192.5 233.183C187.196 239.677 185.63 244.404 182.5 252.183C178.875 261.191 177.087 266.534 176 276.183C174.485 289.64 178.196 297.204 179.5 310.683C180.728 323.37 193.169 336.209 182.5 343.183C179.244 345.312 176.379 344.255 173 346.183C169.281 348.306 166.795 349.795 165 353.683C162.256 359.63 165.604 364.088 168 370.183C170.181 375.731 172.632 378.265 176 383.183C184.055 394.944 189.652 400.881 200 410.683C212.249 422.285 219.491 428.979 234.5 436.683C251.49 445.404 262.731 446.66 281.5 450.183C305.921 454.767 320.158 454.686 345 454.183C363.807 453.803 374.602 454.098 393 450.183C409.307 446.713 418.517 443.994 433.5 436.683C447.081 430.057 454.443 425.419 466 415.683C473.814 409.101 481.796 407.036 484.5 397.183C485.947 391.911 485.66 388.526 484.5 383.183C483.314 377.719 479.105 375.742 478.5 370.183C477.282 358.985 488.909 355.962 494.5 346.183C499.052 338.224 504.424 334.334 505 325.183C505.513 317.045 501.22 313.03 499 305.183C495.816 293.927 492.403 287.846 491.5 276.183C490.591 264.444 499.027 257.052 494.5 246.183C492.038 240.27 490.574 235.218 484.5 233.183C478.573 231.197 474.923 239.183 469 237.183C464.806 235.767 463.271 233.136 460.5 229.683C453.022 220.365 459.329 210.612 454.5 199.683C449.101 187.465 443.483 181.559 433.5 172.683C421.935 162.399 411.909 161.72 399 153.183C388.642 146.333 380.885 144.167 373.5 134.183C367.569 126.165 365.005 120.543 363.5 110.683C361.775 99.3816 367.5 95.1836 367.5 84.1831C367.5 79.4281 368.593 75.7978 365 72.6836C359.469 67.8901 351.355 71.0522 345 74.6836C334.5 80.6841 328.926 83.4336 320 89.6831C307.755 98.2562 302.679 102.016 290.5 110.683C278.249 119.402 270.504 123.424 260 134.183C250.752 143.656 246.349 149.853 239.5 161.183C234.305 169.777 231.963 174.956 228 184.183Z" fill="#D9D9D9"/>
<path d="M404 106.183C406 102.184 404.421 95.4117 407 90.6836C410 85.1835 420.482 97.3474 423 105.684C424.694 111.291 425.18 116.975 422.5 122.184C420.017 127.011 416.293 129.889 411 128.684C406.807 127.728 403.839 125.684 402.5 121.684C401.329 118.184 400 114.183 404 106.183Z" fill="#D9D9D9"/>
<path d="M140 272.183C142.879 283.501 153.644 288.936 150.5 300.183C148.191 308.445 142 305.183 137.5 316.683C137.5 316.683 134.293 328.471 134 336.184C133.708 343.896 136 356.183 136 356.183C136 356.183 140.181 371.678 143.5 379.684C146.819 387.689 153 397.183 153 397.183C163.408 412.993 167.432 425.228 182.5 436.683C196.367 447.224 204.417 450.643 220.181 457.336L221 457.684C235.517 463.849 248 466.766 263.5 469.684C283.914 473.527 295.746 473.823 316.5 474.684C336.4 475.509 353.5 478.684 373.5 474.684C391.771 471.029 400.68 473.084 419 469.684C434.693 466.771 439.742 460.263 454.5 454.183C471.344 447.244 478.423 442.865 491.5 430.183C503.63 418.42 509.752 408.639 518.5 394.183C527.82 378.785 530.717 376.01 535.5 357.684C540.282 339.357 544.904 325.183 540.5 309.184C538.085 300.408 535.547 297.552 533.5 288.684C529.797 272.647 535.5 266.142 535.5 249.684C535.5 235.184 532.15 221.683 522.5 210.184C514.21 200.306 507 198.683 496.5 189.683C487.264 181.767 488.737 172.586 484.5 161.183C476.338 139.216 473.076 125.958 460.5 106.183C450.746 90.846 443.325 83.5426 431 70.1831C419.202 57.3948 412.366 50.323 399 39.1831C383.812 26.5243 369.946 18.2699 358.5 11.1835C348 4.6833 334.808 -4.6513 322.5 2.68325C314.24 7.60565 314.859 12.1124 310.5 20.6831C304.119 33.2301 305.393 43.1986 296 53.6831C289.85 60.5479 285.159 65.0572 277.5 70.1831C268.622 76.1243 261.032 78.4798 252 84.1831C237.757 93.1764 232.658 94.0248 221 106.183C207.254 120.518 200.292 129.846 194 148.683C188.925 163.877 190 173.183 183.5 189.683C177.823 204.094 160.879 203.683 153 212.683C143.337 223.721 138.991 230.088 137.5 244.683C136.455 254.903 137.468 262.227 140 272.183Z" fill="#5CC9EA"/>
<path d="M228 184.183C223.346 195.021 225.987 204.003 218 212.683C213.927 217.11 210.211 217.942 205.5 221.683C200.192 225.898 196.788 227.934 192.5 233.183C187.196 239.677 185.63 244.404 182.5 252.183C178.875 261.191 177.087 266.534 176 276.183C174.485 289.64 178.196 297.204 179.5 310.683C180.728 323.37 193.169 336.209 182.5 343.183C179.244 345.312 176.379 344.255 173 346.183C169.281 348.306 166.795 349.795 165 353.683C162.256 359.63 165.604 364.088 168 370.183C170.181 375.731 172.632 378.265 176 383.183C184.055 394.944 189.652 400.881 200 410.683C212.249 422.285 219.491 428.979 234.5 436.683C251.49 445.404 262.731 446.66 281.5 450.183C305.921 454.767 320.158 454.686 345 454.183C363.807 453.803 374.602 454.098 393 450.183C409.307 446.713 418.517 443.994 433.5 436.683C447.081 430.057 454.443 425.419 466 415.683C473.814 409.101 481.796 407.036 484.5 397.183C485.947 391.911 485.66 388.526 484.5 383.183C483.314 377.719 479.105 375.742 478.5 370.183C477.282 358.985 488.909 355.962 494.5 346.183C499.052 338.224 504.424 334.334 505 325.183C505.513 317.045 501.22 313.03 499 305.183C495.816 293.927 492.403 287.846 491.5 276.183C490.591 264.444 499.027 257.052 494.5 246.183C492.038 240.27 490.574 235.218 484.5 233.183C478.573 231.197 474.923 239.183 469 237.183C464.806 235.767 463.271 233.136 460.5 229.683C453.022 220.365 459.329 210.612 454.5 199.683C449.101 187.465 443.483 181.559 433.5 172.683C421.935 162.399 411.909 161.72 399 153.183C388.642 146.333 380.885 144.167 373.5 134.183C367.569 126.165 365.005 120.543 363.5 110.683C361.775 99.3816 367.5 95.1836 367.5 84.1831C367.5 79.4281 368.593 75.7978 365 72.6836C359.469 67.8901 351.355 71.0522 345 74.6836C334.5 80.6841 328.926 83.4336 320 89.6831C307.755 98.2562 302.679 102.016 290.5 110.683C278.249 119.402 270.504 123.424 260 134.183C250.752 143.656 246.349 149.853 239.5 161.183C234.305 169.777 231.963 174.956 228 184.183Z" fill="#5F0B87"/>
<path d="M404 106.183C406 102.184 404.421 95.4117 407 90.6836C410 85.1835 420.482 97.3474 423 105.684C424.694 111.291 425.18 116.975 422.5 122.184C420.017 127.011 416.293 129.889 411 128.684C406.807 127.728 403.839 125.684 402.5 121.684C401.329 118.184 400 114.183 404 106.183Z" fill="#8F3B89"/>
<path d="M316.5 167.183C318.277 160.371 316.06 153.027 322.5 150.183C326.073 148.606 328.672 149.414 332.5 150.183C337.895 151.267 340.243 153.919 345 156.683C354.323 162.1 359.006 166.042 367.5 172.683C381.656 183.75 388.889 190.884 401.5 203.683C412.369 214.714 420.083 219.873 428 233.183C436.239 247.035 437.944 256.463 441.5 272.183C444.541 285.624 433.552 301.27 446 307.183C452.35 310.199 458.75 302.509 464 307.183C469.283 311.886 465.955 318.111 466 325.183C466.079 337.478 463.533 344.268 460.5 356.183C456.981 370.007 455.608 378.315 448.5 390.683C442.209 401.63 437.857 407.793 428 415.683C413.334 427.422 401.34 428.615 383 432.683C368.432 435.914 359.922 436.552 345 436.683C328.719 436.826 319.647 434.779 303.5 432.683C287.806 430.646 278.475 431.302 263.5 426.183C252.18 422.313 245.168 420.369 236 412.683C226.902 405.056 223.369 398.772 218 388.183C212.105 376.556 210.532 369.06 208.5 356.183C206.096 340.946 206.764 332.011 208.5 316.683C209.983 303.593 209.928 295.621 215.5 283.683C221.718 270.362 228.83 264.795 239.5 254.683C251.692 243.129 260.602 239.117 274.5 229.683C284.538 222.87 292.583 221.875 300.5 212.683C308.484 203.414 310.302 195.991 313.5 184.183C315.263 177.676 314.798 173.706 316.5 167.183Z" fill="#C86DB0"/>
<circle cx="260.5" cy="336.184" r="8.5" fill="black"/>
<circle cx="399.5" cy="336.184" r="8.5" fill="black"/>
<path d="M315 351.684C315.249 359.551 321.146 365.659 329 366.184C337.414 366.745 344.734 360.112 345 351.684" stroke="black" stroke-width="5" stroke-linecap="round"/>
</svg>
